<?xml version="1.0" standalone="no"?>
<!DOCTYPE svg PUBLIC "-//W3C//DTD SVG 20010904//EN"
 "http://www.w3.org/TR/2001/REC-SVG-20010904/DTD/svg10.dtd">
<svg version="1.0" xmlns="http://www.w3.org/2000/svg"
 width="512.000000pt" height="512.000000pt" viewBox="0 0 512.000000 512.000000"
 preserveAspectRatio="xMidYMid meet">
<metadata>
Created by potrace 1.14, written by Peter Selinger 2001-2017
</metadata>
<g transform="translate(0.000000,512.000000) scale(0.100000,-0.100000)"
fill="#000000" stroke="none">
<path d="M2796 5101 c-25 -28 -15 -62 31 -97 100 -76 195 -195 266 -331 62
-120 136 -371 152 -523 30 -272 24 -525 -19 -740 -24 -118 -24 -120 -57 -220
-27 -84 -130 -307 -148 -320 -3 -3 -18 -23 -32 -45 -57 -87 -173 -198 -274
-263 -26 -16 -79 -41 -82 -38 -2 1 21 39 51 85 53 80 61 94 106 196 39 86 88
255 88 305 0 8 4 35 8 60 15 84 9 288 -11 395 -28 144 -89 307 -163 430 -100
167 -266 341 -411 430 -85 53 -149 86 -221 117 -287 120 -607 132 -925 32
-132 -41 -276 -120 -406 -221 -66 -51 -77 -82 -44 -113 20 -18 27 -20 66 -10
247 60 544 8 835 -145 79 -42 258 -154 300 -188 10 -8 55 -44 99 -79 334 -265
577 -643 621 -967 13 -94 6 -258 -14 -311 -8 -22 -10 -19 -22 30 -45 193 -186
428 -350 583 -73 70 -210 177 -225 177 -3 0 -26 13 -52 29 -89 54 -283 125
-398 146 -186 32 -410 24 -575 -22 -272 -75 -508 -224 -681 -429 -90 -107
-188 -280 -238 -420 -19 -54 -57 -214 -60 -254 -6 -71 -8 -245 -4 -257 7 -18
48 -34 67 -27 9 3 36 44 62 92 25 47 52 92 60 99 8 8 14 18 14 23 0 16 158
169 230 221 63 46 213 139 225 139 2 0 36 15 77 34 137 63 433 151 578 171 25
3 56 8 70 10 150 22 383 22 515 -1 285 -49 485 -147 643 -313 39 -42 58 -77
30 -53 -20 15 -185 70 -263 86 -163 34 -360 38 -500 10 -11 -3 -35 -7 -54 -10
-58 -10 -208 -62 -290 -100 -385 -183 -661 -547 -735 -969 -21 -121 -14 -396
13 -500 12 -44 24 -90 26 -103 13 -58 82 -213 133 -297 73 -122 194 -261 302
-347 71 -56 87 -62 116 -43 31 20 30 41 -6 120 -83 181 -105 392 -66 640 21
136 84 344 142 473 18 39 31 72 29 72 -12 0 199 366 225 390 3 3 27 32 52 65
53 70 164 184 227 235 24 19 48 40 55 45 30 27 149 98 219 130 98 46 209 75
312 82 l80 5 -84 -51 c-105 -64 -177 -119 -252 -194 -61 -60 -169 -190 -169
-203 0 -4 -10 -21 -23 -38 -86 -117 -175 -372 -194 -554 -11 -109 -5 -292 11
-367 20 -94 29 -128 48 -185 118 -366 404 -670 764 -813 175 -70 319 -96 514
-92 208 3 345 32 367 75 21 42 -2 61 -113 93 -101 29 -204 76 -284 130 -54 36
-158 122 -183 151 -11 12 -40 44 -66 71 -85 91 -193 243 -264 375 -17 30 -40
74 -53 97 -84 153 -181 442 -200 593 -3 25 -9 63 -14 85 -5 22 -8 108 -6 190
3 148 18 246 51 336 9 24 20 56 24 70 16 48 108 200 129 213 5 3 2 -23 -5 -57
-27 -129 -19 -370 18 -507 11 -41 21 -82 24 -90 28 -109 119 -287 203 -399
131 -174 290 -305 482 -398 271 -131 566 -164 883 -98 128 26 336 121 462 210
88 62 245 219 308 308 56 79 147 249 147 276 0 22 -30 51 -53 51 -9 0 -51 -25
-94 -56 -131 -94 -248 -144 -419 -178 -126 -25 -329 -35 -439 -21 -22 2 -80 9
-130 15 -49 6 -97 12 -105 14 -8 1 -33 6 -55 10 -471 90 -879 321 -1068 604
-86 129 -155 298 -130 323 5 5 36 12 69 14 464 36 861 293 1080 700 34 63 90
198 98 237 3 13 12 47 20 76 8 30 18 81 23 115 10 76 10 305 1 367 -8 52 -24
128 -28 140 -1 3 -2 8 -1 12 3 28 -83 235 -137 328 -177 303 -473 530 -804
615 -104 28 -132 29 -152 6z"/>
<path d="M4716 3977 c-20 -20 -24 -34 -24 -93 -2 -293 -152 -589 -446 -879
-156 -154 -241 -224 -386 -318 -84 -54 -276 -158 -315 -169 -11 -4 -58 -20
-105 -36 -73 -27 -151 -45 -275 -67 -35 -6 -221 -7 -250 -1 -11 2 -40 7 -65
11 -71 12 -71 12 -144 39 -76 29 -76 29 -76 19 1 -17 130 -144 206 -202 310
-239 735 -323 1132 -224 367 91 700 368 862 716 36 78 83 215 95 274 60 312
25 606 -103 862 -44 87 -70 104 -106 68z"/>
</g>
</svg>
