<?xml version="1.0" encoding="UTF-8" standalone="no"?>
<!DOCTYPE svg PUBLIC "-//W3C//DTD SVG 1.1//EN" "http://www.w3.org/Graphics/SVG/1.1/DTD/svg11.dtd">
<svg width="100%" height="100%" viewBox="0 0 1155 1158" version="1.1" xmlns="http://www.w3.org/2000/svg" xmlns:xlink="http://www.w3.org/1999/xlink" xml:space="preserve" xmlns:serif="http://www.serif.com/" style="fill-rule:evenodd;clip-rule:evenodd;stroke-linecap:round;stroke-linejoin:round;stroke-miterlimit:1.5;">
    <g transform="matrix(1,0,0,1,-8007.48,-2134.57)">
        <g transform="matrix(1.52435,0,0,1.52435,5351.69,136.461)">
            <g transform="matrix(-0.482372,1.31243e-16,1.31243e-16,0.482372,2611.74,1022.87)">
                <path d="M942.264,625.938C948.187,621.649 950.356,613.833 947.489,607.105C944.623,600.378 937.484,596.527 930.287,597.828C741.28,631.923 597.716,797.424 597.716,996.193C597.716,1219.62 779.111,1401.02 1002.54,1401.02C871.916,1344.96 800.127,1182.87 800.127,996.193C800.127,839.283 840.796,699.736 942.264,625.938Z" style="fill:url(#_Linear1);stroke:rgb(34,255,0);stroke-width:1.36px;"/>
            </g>
            <g transform="matrix(-0.300283,0.377508,0.377508,0.300283,1900.29,899.508)">
                <path d="M942.264,625.938C948.187,621.649 950.356,613.833 947.489,607.105C944.623,600.378 937.484,596.527 930.287,597.828C741.28,631.923 597.716,797.424 597.716,996.193C597.716,1219.62 779.111,1401.02 1002.54,1401.02C871.916,1344.96 800.127,1182.87 800.127,996.193C800.127,839.283 840.796,699.736 942.264,625.938Z" style="fill:url(#_Linear2);stroke:rgb(34,255,0);stroke-width:1.36px;"/>
            </g>
            <g transform="matrix(0.10851,0.470009,0.470009,-0.10851,1360.87,1379.5)">
                <path d="M942.264,625.938C948.187,621.649 950.356,613.833 947.489,607.105C944.623,600.378 937.484,596.527 930.287,597.828C741.28,631.923 597.716,797.424 597.716,996.193C597.716,1219.62 779.111,1401.02 1002.54,1401.02C871.916,1344.96 800.127,1182.87 800.127,996.193C800.127,839.283 840.796,699.736 942.264,625.938Z" style="fill:url(#_Linear3);stroke:rgb(34,255,0);stroke-width:1.36px;"/>
            </g>
            <g transform="matrix(0.435382,0.207666,0.207666,-0.435382,1400.71,2100.46)">
                <path d="M942.264,625.938C948.187,621.649 950.356,613.833 947.489,607.105C944.623,600.378 937.484,596.527 930.287,597.828C741.28,631.923 597.716,797.424 597.716,996.193C597.716,1219.62 779.111,1401.02 1002.54,1401.02C871.916,1344.96 800.127,1182.87 800.127,996.193C800.127,839.283 840.796,699.736 942.264,625.938Z" style="fill:url(#_Linear4);stroke:rgb(34,255,0);stroke-width:1.36px;"/>
            </g>
            <g transform="matrix(0.433553,-0.211458,-0.211458,-0.433553,1989.74,2518.08)">
                <path d="M942.264,625.938C948.187,621.649 950.356,613.833 947.489,607.105C944.623,600.378 937.484,596.527 930.287,597.828C741.28,631.923 597.716,797.424 597.716,996.193C597.716,1219.62 779.111,1401.02 1002.54,1401.02C871.916,1344.96 800.127,1182.87 800.127,996.193C800.127,839.283 840.796,699.736 942.264,625.938Z" style="fill:url(#_Linear5);stroke:rgb(34,255,0);stroke-width:1.36px;"/>
            </g>
            <g transform="matrix(0.104404,-0.470938,-0.470938,-0.104404,2683.26,2317.08)">
                <path d="M942.264,625.938C948.187,621.649 950.356,613.833 947.489,607.105C944.623,600.378 937.484,596.527 930.287,597.828C741.28,631.923 597.716,797.424 597.716,996.193C597.716,1219.62 779.111,1401.02 1002.54,1401.02C871.916,1344.96 800.127,1182.87 800.127,996.193C800.127,839.283 840.796,699.736 942.264,625.938Z" style="fill:url(#_Linear6);stroke:rgb(34,255,0);stroke-width:1.36px;"/>
            </g>
            <g transform="matrix(-0.303566,-0.374873,-0.374873,0.303566,2957.68,1649.2)">
                <path d="M942.264,625.938C948.187,621.649 950.356,613.833 947.489,607.105C944.623,600.378 937.484,596.527 930.287,597.828C741.28,631.923 597.716,797.424 597.716,996.193C597.716,1219.62 779.111,1401.02 1002.54,1401.02C871.916,1344.96 800.127,1182.87 800.127,996.193C800.127,839.283 840.796,699.736 942.264,625.938Z" style="fill:url(#_Linear7);stroke:rgb(34,255,0);stroke-width:1.36px;"/>
            </g>
        </g>
    </g>
    <defs>
        <linearGradient id="_Linear1" x1="0" y1="0" x2="1" y2="0" gradientUnits="userSpaceOnUse" gradientTransform="matrix(242.907,-3.63425e-14,-3.63425e-14,-242.907,597.716,999.296)"><stop offset="0" style="stop-color:rgb(34,255,0);stop-opacity:1"/><stop offset="1" style="stop-color:rgb(0,141,64);stop-opacity:1"/></linearGradient>
        <linearGradient id="_Linear2" x1="0" y1="0" x2="1" y2="0" gradientUnits="userSpaceOnUse" gradientTransform="matrix(242.907,-3.63425e-14,-3.63425e-14,-242.907,597.716,999.296)"><stop offset="0" style="stop-color:rgb(34,255,0);stop-opacity:1"/><stop offset="1" style="stop-color:rgb(0,141,64);stop-opacity:1"/></linearGradient>
        <linearGradient id="_Linear3" x1="0" y1="0" x2="1" y2="0" gradientUnits="userSpaceOnUse" gradientTransform="matrix(242.907,-3.63425e-14,-3.63425e-14,-242.907,597.716,999.296)"><stop offset="0" style="stop-color:rgb(34,255,0);stop-opacity:1"/><stop offset="1" style="stop-color:rgb(0,141,64);stop-opacity:1"/></linearGradient>
        <linearGradient id="_Linear4" x1="0" y1="0" x2="1" y2="0" gradientUnits="userSpaceOnUse" gradientTransform="matrix(242.907,-3.63425e-14,-3.63425e-14,-242.907,597.716,999.296)"><stop offset="0" style="stop-color:rgb(34,255,0);stop-opacity:1"/><stop offset="1" style="stop-color:rgb(0,141,64);stop-opacity:1"/></linearGradient>
        <linearGradient id="_Linear5" x1="0" y1="0" x2="1" y2="0" gradientUnits="userSpaceOnUse" gradientTransform="matrix(242.907,-3.63425e-14,-3.63425e-14,-242.907,597.716,999.296)"><stop offset="0" style="stop-color:rgb(34,255,0);stop-opacity:1"/><stop offset="1" style="stop-color:rgb(0,141,64);stop-opacity:1"/></linearGradient>
        <linearGradient id="_Linear6" x1="0" y1="0" x2="1" y2="0" gradientUnits="userSpaceOnUse" gradientTransform="matrix(242.907,-3.63425e-14,-3.63425e-14,-242.907,597.716,999.296)"><stop offset="0" style="stop-color:rgb(34,255,0);stop-opacity:1"/><stop offset="1" style="stop-color:rgb(0,141,64);stop-opacity:1"/></linearGradient>
        <linearGradient id="_Linear7" x1="0" y1="0" x2="1" y2="0" gradientUnits="userSpaceOnUse" gradientTransform="matrix(242.907,-3.63425e-14,-3.63425e-14,-242.907,597.716,999.296)"><stop offset="0" style="stop-color:rgb(34,255,0);stop-opacity:1"/><stop offset="1" style="stop-color:rgb(0,141,64);stop-opacity:1"/></linearGradient>
    </defs>
</svg>
